<?xml version="1.0" encoding="UTF-8"?>
<svg id="Layer_1" data-name="Layer 1" xmlns="http://www.w3.org/2000/svg" viewBox="0 0 300 36">
  <defs>
    <style>
      .cls-1 {
        fill: #fff;
      }

      .cls-2 {
        fill: #faa819;
      }
    </style>
  </defs>
  <g>
    <path class="cls-1" d="M30.24,12.14l-5.77-.04c1.73,0,3.13,1.31,3.13,2.94,0,.25,0,.46-.1.73s-3.03,7.61-3.03,7.61c-.86,2.18-1.55,4.37-2.29,6.56h-.19c-.75-2.19-1.5-4.38-2.32-6.56l-4.47-11.24H0c4.56,0,8.63,1.99,11.26,5.1h-5.37c2.84,0,5.35,1.24,6.97,3.18h-3.42c1.92,0,3.94,1.15,4.59,2.33s.54.94.9,1.72,4,9.41,4,9.41h6.21l9.03-21.74h-3.94Z"/>
    <path class="cls-1" d="M49.34,11.51c-6.16,0-11.72,4.29-11.72,11.77s5.56,11.72,11.72,11.72,11.72-4.29,11.72-11.72-5.56-11.77-11.72-11.77ZM49.34,30.69c-3.8,0-6.08-2.95-6.08-7.42s2.28-7.48,6.08-7.48,6.08,2.97,6.08,7.48-2.28,7.42-6.08,7.42Z"/>
    <path class="cls-1" d="M167.97,13.9v12.4c0,5.5,2.9,8.7,8.35,8.7,2.73,0,4.32-.45,6.61-1.28l-1.27-3.9c-1.5.59-2.79.86-3.99.86-2.36,0-4.19-1.13-4.19-4.13V1.13"/>
    <path class="cls-1" d="M98.89,11.51c-4.02,0-7.84,1.46-10.67,3.07l2.04,3.42c2.4-1.25,5-2.33,7.62-2.33,3.8,0,5.35,1.85,5.56,4.3-11.53.76-16.11,3.21-16.11,8.14,0,3.81,3.26,6.87,7.8,6.87,3.13,0,6.25-1.92,8.7-3.7h.17l.41,2.71h4.51v-13.01c0-6.11-3.56-9.5-10.03-9.5v.02ZM103.42,27.81c-2.15,1.62-4.32,2.66-6.66,2.66s-4.14-.83-4.14-2.77c0-2.36,2.41-3.98,10.8-4.51v4.62Z"/>
    <path class="cls-1" d="M131.14,30.79c-3.95,0-5.39-1.67-5.39-5.37v-9.2h10.61v-4.17h-10.61v-7.01h-4.55l-.71,7.01-6.48.25v3.94h6.23v9.22c0,5.71,2.43,9.54,9.56,9.54,3.01,0,5.37-.61,7.47-1.28l-1.07-3.83c-1.52.52-3.13.9-5.07.9Z"/>
    <path class="cls-1" d="M167.97,1.25v25.05c0,5.5,2.9,8.7,8.35,8.7,2.73,0,4.32-.45,6.61-1.28l-1.27-3.9c-1.5.59-2.79.86-3.99.86-2.36,0-4.19-1.13-4.19-4.13V1.02l-5.5.23Z"/>
    <path class="cls-1" d="M67.48,1.23v25.07c0,5.5,2.9,8.7,8.35,8.7,2.73,0,4.32-.45,6.61-1.28l-1.27-3.9c-1.5.59-2.79.86-3.99.86-2.36,0-4.19-1.13-4.19-4.13V1l-5.5.23Z"/>
    <path class="cls-1" d="M208.42,22.13c0-6.2-3.86-10.64-10.82-10.64-6.25,0-12.02,4.4-12.02,11.72s5.62,11.77,12.77,11.77c3.43,0,6.64-1.08,9.13-2.64l-1.87-3.27c-2.1,1.15-4.1,1.83-6.55,1.83-4.32,0-7.37-1.99-7.99-6.13h17.11c.09-.58.24-1.6.24-2.64ZM197.77,15.56c3.31,0,5.39,1.87,5.75,5.5h-12.34c.75-3.59,3.35-5.5,6.59-5.5Z"/>
    <path class="cls-1" d="M151.71,16.13h-6.33l-3.74-4.09h15.57v21.96h-5.5v-17.87Z"/>
    <path class="cls-1" d="M150.94,4.45c0-1.72,1.34-2.91,3.18-2.91s3.18,1.19,3.18,2.91-1.34,2.88-3.18,2.88-3.18-1.13-3.18-2.88Z"/>
  </g>
  <path class="cls-2" d="M229.21,29.25c0-.7.12-1.46.31-2.33l2.54-11.29c.31-1.35-.77-2.6-2.19-2.6h-6.33l.38-1.68h6.75c2.21,0,3.87,1.96,3.41,4.05l-2.62,11.92c-.15.61-.19,1.16-.19,1.63,0,2.7,1.67,3.79,4.04,3.79,1.67,0,3.19-.54,5-1.35l.6,1.5c-1.96.92-3.69,1.57-6.06,1.57-3.27,0-5.62-1.63-5.62-5.17l-.02-.02ZM232.48,4.02c0-1.37,1.21-2.51,2.48-2.51s1.98.74,1.98,1.85c0,1.39-1.21,2.51-2.5,2.51-1.21,0-1.96-.72-1.96-1.85Z"/>
  <path class="cls-2" d="M252.72,11.35h1.71l-.81,5.02h.19c3.14-2.92,6.64-5.58,11.35-5.58,4.27,0,6,2.33,6,5.51,0,1.44-.19,2.59-.48,3.88l-2.87,13.69h-2.02l2.83-13.5c.29-1.35.48-2.42.48-3.66,0-2.66-1.56-4.16-4.5-4.16-3.85,0-7.58,2.38-11.37,6.26l-3.18,15.06h-2.02l4.7-22.5-.02-.02Z"/>
  <path class="cls-2" d="M282.09,28.22c0-1.02.17-1.94.38-2.92l2.64-12.27h-7.2l.29-1.48,7.35-.2,1.83-7.44h1.69l-1.56,7.44h12.49l-.38,1.68h-12.51l-2.71,12.56c-.19.85-.29,1.55-.29,2.27,0,3.21,1.89,4.84,4.96,4.84,2.56,0,4.77-.67,6.58-1.61l.75,1.46c-1.98,1.15-4.64,1.87-7.68,1.87-4.56,0-6.66-2.55-6.66-6.21h.02Z"/>
</svg>